<svg width="19" height="16" viewBox="0 0 19 16" fill="none" xmlns="http://www.w3.org/2000/svg">
<g clip-path="url(#clip0_2_399)">
<path d="M17.0763 3.96875C17.7787 3.44141 18.4111 2.80859 18.9027 2.07031C18.2705 2.35156 17.533 2.5625 16.7953 2.63281C17.568 2.17578 18.13 1.47266 18.4111 0.59375C17.7085 1.01563 16.9006 1.33203 16.0928 1.50781C15.3903 0.769531 14.442 0.347656 13.3882 0.347656C11.351 0.347656 9.70023 2 9.70023 4.03906C9.70023 4.32031 9.73534 4.60156 9.8056 4.88281C6.7498 4.70703 4.01011 3.23047 2.18366 1.01563C1.86754 1.54297 1.69192 2.17578 1.69192 2.87891C1.69192 4.14453 2.32415 5.26953 3.34275 5.9375C2.74565 5.90234 2.14853 5.76172 1.6568 5.48047V5.51562C1.6568 7.30859 2.92127 8.78516 4.60722 9.13672C4.32623 9.20703 3.97499 9.27734 3.65887 9.27734C3.41301 9.27734 3.20226 9.24219 2.95639 9.20703C3.41301 10.6836 4.78284 11.7383 6.39856 11.7735C5.13408 12.7578 3.5535 13.3555 1.83242 13.3555C1.5163 13.3555 1.23531 13.3203 0.954315 13.2852C2.57003 14.3399 4.50185 14.9375 6.6093 14.9375C13.3882 14.9375 17.0763 9.34766 17.0763 4.46094C17.0763 4.28516 17.0763 4.14453 17.0763 3.96875Z" fill="#292F36"/>
</g>
<defs>
<clipPath id="clip0_2_399">
<rect width="17.9836" height="15" fill="white" transform="translate(0.954315 0.203125)"/>
</clipPath>
</defs>
</svg>
