<svg width="16" height="17" viewBox="0 0 16 17" fill="none" xmlns="http://www.w3.org/2000/svg">
<path d="M3.53874 16.375V5.86328H0.272206V16.375H3.53874ZM1.88791 4.45703C2.94164 4.45703 3.78462 3.57812 3.78462 2.52344C3.78462 1.50391 2.94164 0.660156 1.88791 0.660156C0.869316 0.660156 0.0263367 1.50391 0.0263367 2.52344C0.0263367 3.57812 0.869316 4.45703 1.88791 4.45703ZM15.7268 16.375H15.7619V10.6094C15.7619 7.79687 15.1297 5.61719 11.828 5.61719C10.2475 5.61719 9.19373 6.49609 8.73712 7.30469H8.70199V5.86328H5.57595V16.375H8.84249V11.1719C8.84249 9.80078 9.08836 8.5 10.7743 8.5C12.4603 8.5 12.4954 10.0469 12.4954 11.2774V16.375H15.7268Z" fill="#292F36"/>
</svg>
