<svg width="17" height="18" viewBox="0 0 17 18" fill="none" xmlns="http://www.w3.org/2000/svg">
<path d="M8.34255 4.98242C5.96972 4.98242 4.07887 6.91211 4.07887 9.25C4.07887 11.625 5.96972 13.5176 8.34255 13.5176C10.6783 13.5176 12.6062 11.625 12.6062 9.25C12.6062 6.91211 10.6783 4.98242 8.34255 4.98242ZM8.34255 12.0332C6.82246 12.0332 5.56189 10.8086 5.56189 9.25C5.56189 7.72851 6.78538 6.50391 8.34255 6.50391C9.86266 6.50391 11.0861 7.72851 11.0861 9.25C11.0861 10.8086 9.86266 12.0332 8.34255 12.0332ZM13.7556 4.83398C13.7556 4.27734 13.3107 3.83203 12.7545 3.83203C12.1984 3.83203 11.7535 4.27734 11.7535 4.83398C11.7535 5.39062 12.1984 5.83594 12.7545 5.83594C13.3107 5.83594 13.7556 5.39062 13.7556 4.83398ZM16.5733 5.83594C16.4992 4.5 16.2026 3.3125 15.2385 2.34766C14.2746 1.38281 13.0882 1.08594 11.7535 1.01172C10.3817 0.9375 6.26633 0.9375 4.89453 1.01172C3.55981 1.08594 2.41047 1.38281 1.40944 2.34766C0.445472 3.3125 0.148868 4.5 0.0747166 5.83594C0.000566453 7.20898 0.000566453 11.3281 0.0747166 12.7012C0.148868 14.0371 0.445472 15.1875 1.40944 16.1895C2.41047 17.1543 3.55981 17.4512 4.89453 17.5254C6.26633 17.5996 10.3817 17.5996 11.7535 17.5254C13.0882 17.4512 14.2746 17.1543 15.2385 16.1895C16.2026 15.1875 16.4992 14.0371 16.5733 12.7012C16.6475 11.3281 16.6475 7.20898 16.5733 5.83594ZM14.7936 14.1485C14.5342 14.8906 13.9409 15.4473 13.2365 15.7442C12.1243 16.1895 9.52896 16.0781 8.34255 16.0781C7.11906 16.0781 4.52377 16.1895 3.44858 15.7442C2.70708 15.4473 2.15094 14.8906 1.85434 14.1485C1.40944 13.0723 1.52067 10.4746 1.52067 9.25C1.52067 8.0625 1.40944 5.46484 1.85434 4.35156C2.15094 3.64648 2.70708 3.08984 3.44858 2.79297C4.52377 2.34766 7.11906 2.45898 8.34255 2.45898C9.52896 2.45898 12.1243 2.34766 13.2365 2.79297C13.9409 3.05273 14.4971 3.64648 14.7936 4.35156C15.2385 5.46484 15.1273 8.0625 15.1273 9.25C15.1273 10.4746 15.2385 13.0723 14.7936 14.1485Z" fill="#CDA274"/>
</svg>
